<?xml version="1.0" encoding="UTF-8"?>
<svg version="1.1" viewBox="0 0 2048 910" width="225" height="100" xmlns="http://www.w3.org/2000/svg">
<path transform="translate(218,561)" d="m0 0h1443l291 1 1 150-3 2h-1837l-1-5v-147z" fill="#A2171B"/>
<path transform="translate(933,175)" d="m0 0 240 1 19 1 18 3 17 5 18 8 13 9 7 7 7 11 7 15 2 10v20l-5 17-8 16-8 11-7 8-11 8-10 5-3 5 2 6 11 9 5 5 7 10 6 13 2 9v23l-4 17-5 15-8 14-9 11-9 8-15 9-13 6-21 7-23 5-13 2-12 1-28 1h-303l-1-3 4-20 4-22 4-19 6-36 8-45 5-25 4-26 3-5h286l29-1 9-2 10-6 3-4 2-6v-10l-3-10-2-2-10-2-77-1h-237l2-5 12-11 7-7 8-7 11-11 8-7 36-36zm-5 200-1 1-4 27-3 14v5h209l13-3 8-6 6-8 1-4v-10l-5-10-9-4-19-2z" fill="#FDFCFC"/>
<path transform="translate(522,170)" d="m0 0h17l15 3 10 4 11 8 7 7 9 13 10 17 17 32 15 28 15 29 13 23 13 25 10 18 14 26 14 27 12 22 9 17 14 24 6 10v3h-399l4-7 8-7 11-12 7-7 7-8 14-15 11-12 8-8 7-8 2-1h24l110 1 13 1-9-16-8-16-10-19-16-31-7-12-8-16-10-19-3-5-4-1-13 14-7 8-9 10-11 12-9 10-11 12-9 10-11 12-7 7-7 8-9 9-7 8-16 17-13 14-7 8-12 13-10 11-9 11-13 13-7 8-4 3h-122l2-5 12-13 7-8 7-7 7-8 9-10 14-14 7-8 9-9 7-8 10-10 7-8 22-24 18-20 11-12 9-10 10-10 7-8 10-10 7-8 10-10 7-8 11-12 9-10 7-8 11-12 7-8 12-13 20-20 14-10 12-7 18-6z" fill="#FDFCFC"/>
<path transform="translate(1880,174)" d="m0 0 5 1-2 4-4 5h-2l-1 3h-2l-2 4-9 9-7 8-13 14-7 8-7 7-7 8-10 10-7 8-15 16-12 13-9 10-12 13-9 10-11 12-7 8-8 8-7 8-10 10-7 8-8 8-7 8-9 9-7 8-12 13-11 12-7 8-14 15-7 8-12 12-10 9-15 10-15 7-16 4-6 1h-18l-17-4-12-6-11-10-8-11-12-21-30-56-17-32-16-29-18-34-12-22-18-34-30-56-12-19v-2l130 1 4 5 13 26 12 22 13 25 10 19 12 23 10 19 24 46 10 19 7 12 2 3 4-2 9-11 9-10 7-8 15-16 7-8 14-15 7-8 16-17 12-13 8-8 7-8 9-10h2l2-4 8-8 7-8 12-14 7-7 9-11 7-7 7-8 9-9 7-8 3-2h107z" fill="#FDFCFD"/>
<path transform="translate(803,599)" d="m0 0 28 1h13l19 1 2 1 5-1h53l9 2v2l4 2 1 3 5-1 3 3 4 1 1-9 2-2h12l6 2 1 5-5 21-3 24-2 5-5 5-4 2-3-1-1-2h-33l-8-1v-2l-4-2-5-9-5-1h-18l-1 5h-2v2l-8 6-7 3-2 4-4 1-2-2-12-3-2-3-1-12-3-4v-3l-7 2-6 10-4 8-4-1-6 2h-11l-3-3-1-2v-7l2-10 1-11 2-4 1-6h-11l4 3-2 3-11-3-4-2h-7l-4 2-7 1-5 2-19-1-9 2-5 3-1 4 5 5v2h12l14-1h7l7 2 1-2v3h2v10l-5 7h-7l-4 2h-38l-11-2-9-6-6-9-1-3v-12l5-11 7-8 7-5h2v-2l6-2 10-1h46l2 2 4-1 2-1 9 2 11-3z" fill="#B71B22"/>
<path transform="translate(1489,596)" d="m0 0h6l3 3v2h2l2 4v6l4-1 3 5v9l-3 10 1 7h2v3h12l7-3 7 1 6 3 1 3-3 9-1 2-9 3-9 1-37 1-10 1-6-3-4-5-2-6-3-1v-1l-6-1v-2l-7 1-2 5 4 1-1 2h-5v2h-17l-3-2-1 2h-8l-6 3-11 2-5 1v2l-7 1-9-2v-7l1-3-5-2-13-2v-2l-33 2h-4l-2 4-3 1v-2h-2l-1-3-3 1-1 7-3 3h-18l-3-3 1-9 4-12 4-5 54-1 5-3v-7l-4-4h-30l-18 1-2-1 1-9 3-3 17-3 1-1h41l12 3 1 3 4 2 6 2 4-8 6-2 4 1 37-1h19l7 4 12 3 5-2 8-5 2-3z" fill="#B71B22"/>
<path transform="translate(1208,596)" d="m0 0h5l5 6v10l-2 15v17l6 3h22l8-4 5-10 3-15 2-13 3-2h14l1 1v16l-3 16-5 12-4 6-6 4-14 4-9 1-2 1h-14l-14-2-9-2-2-4h-2v-2l-8 1-7 7-5-1h-4l-14 2-54 1-5-3-1-13 4-1v-4h2l1-5-2-8v-12l-2-1 1-5 5-8 4-2 4-1v2l10-2 37-2h19l8 1h15v-2z" fill="#B71B22"/>
<path transform="translate(542,596)" d="m0 0 6 2 3 4v9l-6 32v3l5 1h34l2 1-1 8-4 5-3 1-14 1h-37l-16-3-4 1-3 1h-28l-32-1-3-3 1-8 4-18 2-18 3-10 4-3 55-2 7 1 19-1z" fill="#B71B22"/>
<path transform="translate(866,603)" d="m0 0h53l9 2 5 5 3 7v9l-3 6-10 8-2 3 1 7 7 6-1 5h-21l-5-5-5-8-10-2h-16l-4 1-3 11-4 3-11 1-5-5 3-15 4-8 2-2 39-1 16-1 5-3 2-3v-5l-1-1-8-1h-48l-1-5 4-6z" fill="#FEFEFE"/>
<path transform="translate(1123,603)" d="m0 0h60l1 5-6 7-2 1-42 1-8 2-1 5v2l45 1 10 2 2 2v17l-4 7-3 3-11 3-7 1h-53l-3-2v-6l4-3 9-3h30l15-1 4-2 1-2v-6h-43l-9-2-4-2-3-6 1-9 4-8 6-5z" fill="#FEFEFE"/>
<path transform="translate(463,602)" d="m0 0h43l12 1 1 3-7 11-15 1h-21l-7 1v6l1 1 41 1v6l-2 3-5 1-26 1-13 2-1 4 2 2 5 1h39l1 3-4 9-9 3h-22l-32-1-3-3 1-8 6-29 4-16 2-2z" fill="#FEFEFE"/>
<path transform="translate(623,602)" d="m0 0h44l7 1 1 3-9 11-41 1v7l4 1 36 1 1 1v6l-5 3-28 1-9 1-3 2 1 5 5 1h39l-1 9-4 4-9 2h-45l-8-2-1-6 8-44 2-6 2-1z" fill="#FEFEFE"/>
<path transform="translate(1273,596)" d="m0 0 6 3 3 6 4-3h14l1-2 17 1 1 2-17 3-3 5-1 6 20-1h30l5 5v7l-6 4-54 1-4 6-4 13v6l2 2 16 1-4 2-14-1-4-5-3 2-9 1-3-2-13 4-4-1 15-5 4-2 2-5 5-10 3-11 1-8v-16h-14l-2 1-2 13-3 15-5 10-6 4-3 1h-22l-6-3-1-1v-17l3-23h1l1 7 5-1 2 4 1 10-1 8 1 4 3 4 6 1 10-4 2-3 1-2h2l-1-7h2v-13l7-1 1-7 1-3 5-2 2-2z" fill="#B71B22"/>
<path transform="translate(1209,602)" d="m0 0h6l3 2v8l-2 15v17l6 3h22l8-4 5-10 3-15 2-13 3-2h14l1 1v16l-3 16-5 12-4 6-6 4-14 4-12 1-21-1-10-3-6-4-4-6-2-13 3-17 4-13 5-3z" fill="#FEFEFE"/>
<path transform="translate(1312,603)" d="m0 0h46l9 3 3 3 3 10-1 10-5 8-7 7-11 3-41 1-2 9-3 4h-16l-3-3 1-9 4-12 4-5 54-1 5-3v-7l-4-4h-30l-18 1-2-1 1-9 3-3z" fill="#FEFEFE"/>
<path transform="translate(1403,603)" d="m0 0h46l9 2 6 5 2 6v12l-3 6-5 6-8 4-9 2-28 1-12 1-3 10-4 3h-14l-3-3 1-6 4-15 5-5 5-1h46l7-2 1-2v-9l-1-1h-53l-1-1v-6l5-5z" fill="#FEFEFE"/>
<path transform="translate(751,602)" d="m0 0h10l2 1-1 6-4 5-6 2-37 1-8 3-3 4-2 6v10l4 5 11 2 37 1-1 7-6 5-5 2h-34l-11-2-9-6-6-9-1-3v-12l5-11 7-8 9-6 10-2z" fill="#FEFEFE"/>
<path transform="translate(1047,602)" d="m0 0h10l3 2-2 7-3 3-16 2-25 1-8 2-4 4-3 8 1 10 3 4 9 2 38 1 1 4-3 5-3 3-8 2h-27l-15-2-7-4-6-7-4-8v-13l4-8 11-11 9-4 13-2z" fill="#FEFEFE"/>
<path transform="translate(870,601)" d="m0 0h53l9 2v2l4 2 1 3 5-1 3 3 4 1 1-9 2-2h12l6 2 1 5-5 21-3 24-2 5-5 5-4 2-3-1-1-2h-33l-8-1 2-2h19l-1-5-6-5-1-7 5-6 8-6 2-5v-9l-4-9-5-3-7-1-50-1z" fill="#B81C23"/>
<path transform="translate(1612,601)" d="m0 0h6l2 2-1 4-8 7h-2l-2 4-7 6-8 7-9 10-2 4-2 8-3 6-3 3h-8l-5-3-2-16-5-10-4-5v-2h-2l-10-15-4-7 2-2h16l7 4 7 8 6 10 5 1 5-3 9-10 5-5 8-4z" fill="#FEFEFE"/>
<path transform="translate(1037,600)" d="m0 0 22 1 2 2v5l4-1v6l-3 2-2-1-2 2 1 5-7 1-1-5-30 1-1 3 7-1 4 2v2l-20 4 1 7 3 5 8 1h3 19l6 2 1-2 4 1 3 5v6l-3 5-9 2-5 2h-5l3-2 6-2 3-3 1-6-38-1-9-2-4-5-1-10 4-10 6-4 6-1 25-1 16-2 3-4 1-5-2-1-42 1-13 2-10 5-9 9-4 8v13l6 11 7 6 8 2 10 1h23l2 2h-28l-17-3h-5v-2l-3-1-3-5-4-19-1 6 1 7 1 3h-3v3l-2 1-4 7-10 2 4-4 3-21 6-28v-5l5 2 6-1h16l14-3z" fill="#B81C23"/>
<path transform="translate(655,599)" d="m0 0h9l1 1 10 1 3 3 6 2 11-2 5 2-5 4-7 7-5 10-1 3v12l2 7-3-3-1-2v-6h-3v6l-3 8-5 8-6 1-3 1h-8l4-2 7-2 3-11-13 1h-26l-6-2-1-5 4-3 9-1 28-1 4-2v-6l-36-1-5-2 1-7 2-1 39-1 8-10v-2l-7-1h-44l-15 1 1-2 3-1z" fill="#B71B22"/>
<path transform="translate(837,602)" d="m0 0 13 1v3l-4 6-8 3-17 3-3 1-2 9-7 30-3 3-3 1h-9l-4-2-1-4 4-15 2-13v-9l-19-2-3-3 1-5 5-4 6-2z" fill="#FEFEFE"/>
<path transform="translate(535,603)" d="m0 0h16v8l-6 32v3l5 1h34l2 1-1 8-4 4-4 1-29 1h-20l-6-2 1-10 7-37 3-9z" fill="#FEFEFE"/>
<path transform="translate(1491,602)" d="m0 0h7l3 3-1 12-3 17-1 12 8 1h31l2 1v8l-7 4-4 1-20 1h-28l-5-3 1-9 6-31 2-13 4-3z" fill="#FEFEFE"/>
<path transform="translate(955,602)" d="m0 0h9l6 2 1 5-5 21-3 24-2 5-3 2h-15l-1-1v-8l6-26 3-20z" fill="#FEFEFE"/>
<path transform="translate(1125,601)" d="m0 0m-11 0 1 2 10-1-2 2-9 3-5 6-3 8 1 9 1 3 13 3h43l1 1v6l-3 4-3 1-15 1h-30l-11 4-1 1v6l2 1h53l1 2-54 1-5-3-1-13 4-1v-4h2l1-5-2-8v-12l-2-1 1-5 5-8 4-2z" fill="#B81C23"/>
<path transform="translate(1039,615)" d="m0 0h8l-1 2-25 1-1 3 7-1 4 2v2l-20 4 1 7 3 5 8 1h3 19l6 2 1-2 4 1 3 5v6l-3 5-9 2-5 2h-5l3-2 6-2 3-3 1-6-38-1-9-2-4-5-1-10 4-10 6-4 6-1z" fill="#B81C23"/>
<path transform="translate(606,604)" d="m0 0h2l-5 27-4 23v6l8 1h34l8 1v1h-46l-10-2-12-1 4-7 1-5h-36l-6-2 2-14 4-21h1v8l3-4h2l1 3v8l-1 7 1 5 4 4 6 3h8l4-1h7l11 2 4-16 4-23z" fill="#B81C23"/>
<path transform="translate(933,175)" d="m0 0 240 1 17 1v1l-258 1-3 1 1-3z" fill="#BE3138"/>
<path transform="translate(113,608)" d="m0 0h1l1 35 2 21 1 18 1 21 3 7 2 2 47 1v1h-58l-1-5v-91z" fill="#B81C23"/>
<path transform="translate(1880,174)" d="m0 0 5 1-2 4-4 4 1-4h-19l-83-1-16 1-8 7-16 16v-3l14-14 7-8 3-2h107z" fill="#B81D24"/>
<path transform="translate(433,421)" d="m0 0h24l110 1 11 1v1h-141l-7 3-20 20-7 8-7 6 2-4 9-9 7-8 10-10 7-8z" fill="#BE3137"/>
<path transform="translate(1619,606)" d="m0 0v3l-14 14-1 7h-2l-2 4-4 2-6 7-4 7h-3v2h-3l-2 4 2-11 6-9 12-12 8-6 5-5z" fill="#B71B22"/>
<path transform="translate(1566,607)" d="m0 0 6 2 11 1 2 2v2l2 2-8 9-6 1-5-5-5-8v-5z" fill="#B81C23"/>
<path transform="translate(313,495)" d="m0 0v3l-7 7-2 1h-119v-1l5-1 113-1 6-4z" fill="#D67F83"/>
<path transform="translate(803,599)" d="m0 0 28 1h11l1 2-6 1-52 1-5 1 3-3 9-2z" fill="#B81C23"/>
<path transform="translate(871,645)" d="m0 0h16l10 2-4 1h-18l-1 5h-2v2l-8 6-5 2-4-1 8-4 3-11z" fill="#B81C23"/>
<path transform="translate(1354,645)" d="m0 0m-5 1h5l-1 2-24 2h-9l-2 4-3 1v-2h-2l-1-3-3 1-1 7-3 3-2-1 3-6 2-7z" fill="#B81C23"/>
<path transform="translate(1543,597)" d="m0 0h10l5 2v2h2v3h-2l-1 2-6-3h-16v4l4 5-1 2-6-8v-4l4-1 1-3z" fill="#B81C23"/>
<path transform="translate(978,643)" d="m0 0h2l5 9 7 6 8 2 10 1h23l2 2h-28l-17-3h-5v-2l-3-1-3-5z" fill="#B81C23"/>
<path transform="translate(1762,175)" d="m0 0 29 1v1l-29 2-8 7-16 16v-3l14-14 7-8z" fill="#BE3B41"/>
<path transform="translate(1060,606)" d="m0 0 1 2 4-1v6l-3 2-2-1-2 2 1 5-7 1-1-5-4-1 4-2 5-2z" fill="#B71B22"/>
<path transform="translate(655,599)" d="m0 0h9l3 3-44 1-15 1 1-2 3-1z" fill="#B81C23"/>
<path transform="translate(1273,596)" d="m0 0 6 3 2 6-2-1h-14l-2 1-2 5-1-4 2-5 5-2 2-2z" fill="#B81C23"/>
<path transform="translate(1435,601)" d="m0 0h19l2 3h-57l1-2z" fill="#B81C23"/>
<path transform="translate(428,425)" d="m0 0 3 1-21 21-7 8-7 6 2-4 9-9 7-8 10-10z" fill="#B5262C"/>
<path transform="translate(789,618)" d="m0 0h6l1 1v9l-3 17-3 11h-1l1-9 2-17 2-4 1-6h-6z" fill="#B81C23"/>
<path transform="translate(1880,174)" d="m0 0 5 1-1 3-30-1v-1z" fill="#FEFEFE"/>
<path transform="translate(1557,640)" d="m0 0 2 3 2 16 4 2 8 1v1h-11l-4-3-1-15z" fill="#B81C23"/>
<path transform="translate(1194,612)" d="m0 0h3l-2 9-3 8-2-1v-7z" fill="#A2171B"/>
<path transform="translate(1226,334)" d="m0 0h2l3 7 11 9 3 2v2l-4-2-14-12-3-4z" fill="#B52B31"/>
<path transform="translate(960,598)" d="m0 0 7 1 3 2-1 3-14-2 3-3z" fill="#B81C23"/>
<path transform="translate(906,618)" d="m0 0h9l1 1v5l-4 1-2-6z" fill="#A5171C"/>
<path transform="translate(428,425)" d="m0 0 3 1-15 15-2-1 10-10z" fill="#B01A20"/>
<path transform="translate(796,664)" d="m0 0h8l2 2-1 3h-6z" fill="#B81C23"/>
<path transform="translate(684,649)" d="m0 0 7 6 6 4-3 1-4-1v-2l-4-1-3-6z" fill="#B81C23"/>
</svg>
